<svg width="264.65277099609375" height="172.53737910746239" viewBox="0 0 369.6666666666667 241" class="css-1j8o68f"><defs id="SvgjsDefs4143"><linearGradient id="SvgjsLinearGradient4150"><stop id="SvgjsStop4151" stop-color="#7d141d" offset="0"></stop><stop id="SvgjsStop4152" stop-color="#ff1e27" offset="1"></stop></linearGradient><linearGradient id="SvgjsLinearGradient4153"><stop id="SvgjsStop4154" stop-color="#7d141d" offset="0"></stop><stop id="SvgjsStop4155" stop-color="#ff1e27" offset="1"></stop></linearGradient><linearGradient id="SvgjsLinearGradient4156"><stop id="SvgjsStop4157" stop-color="#7d141d" offset="0"></stop><stop id="SvgjsStop4158" stop-color="#ff1e27" offset="1"></stop></linearGradient></defs><g id="SvgjsG4144" featurekey="symbolContainer" transform="matrix(1,0,0,1,0,0)" fill="url(#SvgjsLinearGradient4150)"><path xmlns="http://www.w3.org/2000/svg" fill-rule="evenodd" d="M5,65 L29,0 L53, 65 L29, 10 z M5,161 L29,241 L53,156 L29, 231 z"></path></g><g id="SvgjsG4145" featurekey="monogramFeature-0" transform="matrix(1.3934750598363936,0,0,1.3934750598363936,0.0002646214688204974,67.45850606273675)" fill="url(#SvgjsLinearGradient4153)"><path d="M0.84 16.560000000000002 l0 0 c0.06 -0.06 8.58 -0.18 17.7 -0.24 c-0.42 5.7 0.3 9.96 0.3 9.96 c0.24 1.08 1.32 1.8 2.4 1.62 c3 -0.54 0.6 -3.66 1.32 -11.58 c9.06 -0.12 17.58 -0.18 17.7 -0.12 c2.4 1.74 1.8 41.7 0.18 42.84 c-0.36 0.24 -2.58 0.48 -5.76 0.66 c-1.68 -2.04 -5.82 -8.22 -3.66 -17.04 c0.54 -2.52 -3.36 -3.48 -3.9 -0.9 c-2.04 8.16 0.54 14.52 2.82 18.06 c-5.52 0.18 -12.18 0.24 -17.76 0.12 c2.28 -3.6 4.86 -9.9 2.94 -18.18 c-0.66 -2.58 -4.56 -1.62 -3.9 0.9 c2.1 9.06 -2.28 15.3 -3.9 17.16 c-3.72 -0.18 -6.36 -0.42 -6.66 -0.78 c-1.5 -2.16 0 -42.42 0.18 -42.48 z"></path></g><g id="SvgjsG4146" featurekey="nameFeature-0" transform="matrix(1.1541099448315966,0,0,1.1541099448315966,75.23013437137215,90.61232199840545)" fill="url(#SvgjsLinearGradient4156)"><path d="M32.4 12 l0 28 l-6 0 l0 -14.88 l-6.52 14.88 l-5.04 0 l-6.44 -14.8 l0 14.8 l-6 0 l0 -28 l5.76 0 l9.24 20.2 l9.24 -20.2 l5.76 0 z M59.56 40 l-2.12 -5 l-13.52 0 l-2.12 5 l-6.2 0 l12.44 -28 l5.28 0 l12.48 28 l-6.24 0 z M45.96000000000001 30.240000000000002 l9.44 0 l-4.72 -11.08 z M95.36000000000001 25.119999999999997 c1.24 9.4 -4.88 15.28 -12.44 15.28 c-7.96 0 -14.52 -5.88 -14.52 -14.4 s6.72 -14.4 14.52 -14.4 c3.72 0 7 1.2 9.4 3.32 l-3.52 3.96 c-1.48 -1.04 -3.48 -1.8 -5.52 -1.8 c-5.08 0 -8.8 3.72 -8.8 8.92 s3.6 8.92 8.44 8.92 c3.68 0 6.24 -1.32 7.04 -4.84 l-6.6 0 l0 -4.96 l12 0 z M105.52 12 l0 28 l-5.84 0 l0 -28 l5.84 0 z M133.84 37 c-2.48 2.24 -5.8 3.4 -9.52 3.4 c-7.84 0 -14.6 -5.88 -14.6 -14.4 s6.76 -14.4 14.6 -14.4 c3.68 0 6.96 1.2 9.36 3.32 l-3.52 3.96 c-1.48 -1.04 -3.48 -1.8 -5.52 -1.8 c-5.04 0 -8.84 3.72 -8.84 8.92 s3.8 8.92 8.84 8.92 c2.12 0 4.2 -0.8 5.72 -2 z M155.36 17.32 l-11.72 0 l0 6.12 l9.64 0 l0 5 l-9.64 0 l0 11.56 l-6 0 l0 -28 l17.72 0 l0 5.32 z M165.00000000000003 34.64 l11 0 l0 5.36 l-16.84 0 l0 -28 l5.84 0 l0 22.64 z M202.36 40 l-2.12 -5 l-13.52 0 l-2.12 5 l-6.2 0 l12.44 -28 l5.28 0 l12.48 28 l-6.24 0 z M188.76000000000002 30.240000000000002 l9.44 0 l-4.72 -11.08 z M233.84000000000003 40 l-6.2 0 l-5.96 -9.32 l-0.08 0 l-3.96 0 l0 9.32 l-5.84 0 l0 -28 l9.8 0 c6.28 0 10.36 3.8 10.36 9.52 c0 3.8 -1.84 6.64 -4.96 8.08 z M217.64000000000004 17.36 l0 8.28 l3.6 0 c2.88 0 4.88 -1.12 4.88 -4.12 c0 -2.96 -2 -4.16 -4.88 -4.16 l-3.6 0 z M243.28000000000003 34.64 l11.84 0 l0 5.36 l-12.64 0 l-5.04 0 l0 -28 l5.84 0 l11.48 0 l0 5.36 l-11.48 0 l0 5.92 l8.68 0 l0 5.28 l-8.68 0 l0 6.08 z"></path></g></svg>