 <svg class="smarttrackerlogo" width="270.9000000000001" height="122.41440393757564" viewBox="0 0 389.4363693645446 95.74738105518028" class="css-1j8o68f"><defs id="SvgjsDefs20477"><linearGradient id="SvgjsLinearGradient20486"><stop id="SvgjsStop20487" stop-color="#2d388a" offset="0"></stop><stop id="SvgjsStop20488" stop-color="#00aeef" offset="1"></stop></linearGradient><linearGradient id="SvgjsLinearGradient20489"><stop id="SvgjsStop20490" stop-color="#7d141d" offset="0"></stop><stop id="SvgjsStop20491" stop-color="#ff1e27" offset="1"></stop></linearGradient><linearGradient id="SvgjsLinearGradient20492"><stop id="SvgjsStop20493" stop-color="#7d141d" offset="0"></stop><stop id="SvgjsStop20494" stop-color="#ff1e27" offset="1"></stop></linearGradient><linearGradient id="SvgjsLinearGradient20495"><stop id="SvgjsStop20496" stop-color="#7d141d" offset="0"></stop><stop id="SvgjsStop20497" stop-color="#ff1e27" offset="1"></stop></linearGradient></defs><g id="SvgjsG20478" featurekey="sloganFeature-0" transform="matrix(0.8686341463953308,0,0,0.8686341463953308,48.56568292680233,78.06181492744619)" fill="url(#SvgjsLinearGradient20486)"><path d="M4.833 11.3334 c2.3754 0.018398 4.3036 1.954 4.3036 4.333 c0 2.3882 -1.943 4.333 -4.333 4.333 c-1.7829 0 -3.3598 -1.069 -4.022 -2.7268 l0.3459 -0.16008 l0.045996 -0.018398 c0.59062 1.5014 2.0166 2.4728 3.6284 2.4728 c2.1508 0 3.9006 -1.7498 3.9006 -3.9006 s-1.7498 -3.9006 -3.9006 -3.9006 l0 -0.0055273 c-0.92732 -0.016563 -1.678 -0.7746 -1.678 -1.7075 c0 -0.94204 0.76724 -1.7093 1.7093 -1.7093 c0.69732 0 1.2971 0.41398 1.5621 1.0138 l-0.39192 0.18215 c-0.19688 -0.45078 -0.64582 -0.76358 -1.1702 -0.76358 c-0.70286 0 -1.2769 0.57406 -1.2769 1.2788 s0.57222 1.2788 1.2769 1.2788 z M2.8994 10.0546 c0 1.0672 0.86842 1.9338 1.9337 1.9356 c2.0148 0.016563 3.6468 1.6596 3.6468 3.6762 c0 2.0276 -1.6504 3.678 -3.678 3.678 c-1.5161 0 -2.8776 -0.9402 -3.426 -2.3478 l0.39192 -0.18215 c0.47838 1.2567 1.6872 2.0976 3.034 2.0976 c1.7903 0 3.2456 -1.4554 3.2456 -3.2456 s-1.4554 -3.2456 -3.2456 -3.2456 l0 -0.0018359 c-1.2898 -0.016563 -2.3348 -1.0708 -2.3348 -2.3644 c0 -1.3045 1.0616 -2.3662 2.3662 -2.3662 c0.9402 0 1.7774 0.56302 2.1546 1.3947 l-0.39192 0.18215 c-0.30542 -0.68078 -0.99356 -1.1445 -1.7626 -1.1445 c-1.0672 0 -1.9338 0.8666 -1.9338 1.9338 z M7.582 8.809 l-0.39192 0.18398 c-0.41398 -0.9126 -1.3376 -1.5253 -2.357 -1.5253 c-1.4278 0 -2.5888 1.161 -2.5888 2.5888 s1.161 2.5888 2.5888 2.5888 c1.6504 0.016563 2.9898 1.3634 2.9898 3.0194 c0 1.6651 -1.3542 3.0212 -3.0212 3.0212 c-1.2585 0 -2.392 -0.80038 -2.828 -1.9687 l0.39376 -0.18215 c0.3643 1.0175 1.345 1.7185 2.4342 1.7185 c1.4278 0 2.5888 -1.161 2.5888 -2.5888 s-1.161 -2.5888 -2.5888 -2.5888 l0 -0.0018359 c-1.6504 -0.016563 -2.9898 -1.3634 -2.9898 -3.0194 c0 -1.6651 1.3542 -3.0212 3.0212 -3.0212 c1.1886 0 2.265 0.71388 2.7488 1.7755 z M8.1798 8.533 l-0.39376 0.18031 c-0.52254 -1.15 -1.678 -1.9043 -2.955 -1.9043 c-1.7903 0 -3.2456 1.4554 -3.2456 3.2456 s1.4554 3.2456 3.2456 3.2456 l0 0.0018359 c1.2898 0.016563 2.3348 1.0708 2.3348 2.3644 c0 1.3045 -1.0616 2.3662 -2.3662 2.3662 c-1.0101 0 -1.9043 -0.65318 -2.2318 -1.5897 l0.39376 -0.18215 c0.25574 0.78748 0.99908 1.3395 1.8399 1.3395 c1.0672 0 1.9338 -0.8666 1.9338 -1.9338 s-0.8666 -1.9338 -1.9338 -1.9338 c-2.0148 -0.016563 -3.6468 -1.6596 -3.6468 -3.6762 c0 -2.0276 1.6504 -3.678 3.678 -3.678 c1.4462 0 2.7526 0.85374 3.3468 2.1546 z M4.8018 14.387599999999999 c-2.3736 -0.016563 -4.3018 -1.954 -4.3018 -4.3312 c0 -2.39 1.943 -4.333 4.333 -4.333 c1.7148 0 3.2346 0.98804 3.9394 2.5354 l-0.39192 0.18215 c-0.63478 -1.3947 -2.0038 -2.2852 -3.5474 -2.2852 c-2.1508 0 -3.9006 1.7498 -3.9006 3.9006 s1.7498 3.9006 3.9006 3.9006 l0 0.0018359 c0.92732 0.016563 1.678 0.7746 1.678 1.7075 c0 0.94204 -0.7654 1.7093 -1.7093 1.7093 c-0.77094 0 -1.4204 -0.50598 -1.6339 -1.2107 l0.39558 -0.18398 c0.13984 0.5575 0.64032 0.96228 1.2383 0.96228 c0.70468 0 1.2788 -0.57222 1.2788 -1.2769 s-0.57406 -1.2788 -1.2788 -1.2788 z M18.3152 6.52 l-8.6753 0 l0 -0.43238 l8.6753 0 l0 0.43238 z M18.3152 7.188000000000001 l-8.6753 0 l0 -0.43238 l8.6753 0 l0 0.43238 z M18.3152 7.853999999999999 l-8.6753 0 l0 -0.43238 l8.6753 0 l0 0.43238 z M18.3152 8.522 l-8.6753 0 l0 -0.43238 l8.6753 0 l0 0.43238 z M9.64 9.188 l0 -0.43238 l8.6771 0 l0 0.43238 l-2.7893 0 l0 10.811 l-0.43055 0 l0 -10.811 l-0.23551 0 l0 10.811 l-0.43238 0 l0 -10.811 l-0.23367 0 l0 10.811 l-0.43238 0 l0 -10.811 l-0.23551 0 l0 10.811 l-0.43238 0 l0 -10.811 l-0.23367 0 l0 10.811 l-0.43238 0 l0 -10.811 l-2.7893 0 z M22.6508 6.016 l0.46918 0 l-5.8308 13.983 l-0.46918 0 z M23.3186 6.016 l0.46918 0 l-5.8308 13.983 l-0.46734 0 z M23.9884 6.016 l0.46734 0 l-5.8308 13.983 l-0.46734 0 z M24.6562 6.016 l0.46918 0 l-5.8326 13.983 l-0.46734 0 z M31.179000000000002 19.99939454 l-5.5714 -13.54 l-0.11959 0.28886 l5.4518 13.251 l-0.46734 0 l-5.2198 -12.688 l-0.11959 0.28886 l5.1022 12.401 l-0.46734 0 l-4.8702 -11.836 l-0.11959 0.28704 l4.7506 11.549 l-0.46734 0 l-4.5188 -10.984 l-0.11959 0.28704 l4.4012 10.695 l-0.46734 0 l-1.0488 -2.5538 l-6.2778 0 l-1.0653 2.5538 l-0.46918 0 l5.8308 -13.983 l0.5667 0 l5.7534 13.983 l-0.46734 0 z M27.127000000000002 17.0132 l-0.092012 -0.22448 l-5.7332 0 l-0.093828 0.22448 l5.9191 0 z M26.857 16.3564 l-0.093848 -0.22448 l-5.1886 0 l-0.093828 0.22448 l5.3763 0 z M26.586 15.6994 l-0.093848 -0.22448 l-4.644 0 l-0.093828 0.22448 l4.8317 0 z M26.3158 15.0426 l-0.091992 -0.22448 l-4.1012 0 l-0.093828 0.22448 l4.287 0 z M26.0454 14.3858 l-1.8583 -4.517 l-1.8841 4.517 l3.7424 0 z M28.559999999999995 6.021000000000001 l0.50047 0 l4.4288 7.5952 l0 6.3827 l-0.43238 0 l0 -6.265 z M29.332779999999996 6.021000000000001 l0.49861 0 l4.4288 7.5952 l0 6.3827 l-0.43238 0 l0 -6.265 z M30.604199999999995 6.021000000000001 l4.4268 7.5934 l0.062558 6.3846 l-0.43238 0 l-0.060722 -6.265 l-4.4968 -7.713 l0.50047 0 z M31.376999999999995 6.021000000000001 l4.4268 7.5952 l0.033126 6.3828 l-0.43055 0 l-0.033126 -6.265 l-4.4968 -7.713 l0.50047 0 z M40.56399999999999 6.021000000000001 l0.50046 -0.000019531 l-4.4876 7.713 l0 6.265 l-0.43238 0 l0 -6.265 l-4.495 -7.713 l0.49861 0 l2.6624 4.5668 l2.666 -4.5668 l0.49861 0 l-2.907 4.9826 l-0.02207 -0.012871 l0.15088 0.2576 l3.0506 -5.2272 l0.50047 0 l-3.3008 5.656 l0.13432 0.23368 l3.4388 -5.8896 l0.50047 0 l-3.689 6.3184 l0.13615 0.23368 l3.8252 -6.552 l0.50047 0 l-4.0754 6.9808 l0.14352 0.24288 z M53.6576 5.6850000000000005 c4.046 0 7.3376 3.2898 7.3376 7.3376 c0 4.046 -3.2916 7.3376 -7.3376 7.3376 s-7.3376 -3.2916 -7.3376 -7.3376 s3.2916 -7.3376 7.3376 -7.3376 z M53.6576 19.9258 c3.8068 0 6.9052 -3.0984 6.9052 -6.9052 s-3.0984 -6.9052 -6.9052 -6.9052 s-6.9052 3.0966 -6.9052 6.9052 s3.0984 6.9052 6.9052 6.9052 z M53.6576 6.332000000000001 c3.689 0 6.69 3.001 6.6882 6.6882 c0 3.6872 -3.001 6.6882 -6.6882 6.6882 s-6.6882 -2.999 -6.6882 -6.6882 c0 -3.6872 2.999 -6.6882 6.6882 -6.6882 z M53.6576 19.27814 c3.4498 0 6.2576 -2.8078 6.2558 -6.2558 c0 -3.4518 -2.8058 -6.2576 -6.2558 -6.2576 s-6.2576 2.8078 -6.2576 6.2576 s2.8078 6.2558 6.2576 6.2558 z M53.6576 6.98 c3.332 0 6.0404 2.7102 6.0404 6.0404 s-2.7102 6.0404 -6.0404 6.0404 s-6.0404 -2.7102 -6.0404 -6.0404 s2.7102 -6.0404 6.0404 -6.0404 z M53.6576 18.6287 c3.093 0 5.608 -2.5152 5.608 -5.608 s-2.5152 -5.608 -5.608 -5.608 s-5.608 2.5152 -5.608 5.608 s2.5152 5.608 5.608 5.608 z M53.6576 7.628 c2.9734 0 5.3928 2.4196 5.3928 5.3928 s-2.4196 5.3928 -5.3928 5.3928 s-5.3928 -2.4196 -5.3928 -5.3928 s2.4196 -5.3928 5.3928 -5.3928 z M53.6576 17.981 c2.736 0 4.9604 -2.2244 4.9604 -4.9604 s-2.2244 -4.9604 -4.9604 -4.9604 s-4.9604 2.2244 -4.9604 4.9604 s2.2244 4.9604 4.9604 4.9604 z M53.6576 8.277 c2.6164 0 4.7452 2.127 4.7434 4.7434 c0 2.6146 -2.127 4.7434 -4.7434 4.7434 s-4.7452 -2.127 -4.7452 -4.7434 c0 -2.6146 2.1288 -4.7434 4.7452 -4.7434 z M53.6576 17.3334 c2.379 0 4.3128 -1.9338 4.3128 -4.3128 s-1.9356 -4.3128 -4.3128 -4.3128 s-4.3128 1.9338 -4.3128 4.3128 s1.9356 4.3128 4.3128 4.3128 z M62.03238 19.99939454 l-0.43238 0 l0 -13.958 l0.43238 0 l0 13.958 z M62.7003 19.99939454 l-0.43238 0 l0 -13.958 l0.43238 0 l0 13.958 z M63.3664 19.99939454 l-0.43238 0 l0 -13.958 l0.43238 0 l0 13.958 z M64.0342 19.99939454 l-0.43238 0 l0 -13.958 l0.43238 0 l0 13.958 z M73.004 6.042 l0.4324 -0.000019531 l0 13.958 l-0.53357 0 l-8.2024 -13.207 l0 0.38271 l0.0036718 -0.0018359 l7.965 12.826 l-0.50781 0 l-7.461 -12.013 l0 0.37535 l7.2272 11.638 l-0.50781 0 l-6.7194 -10.819 l0 0.37535 l6.4858 10.443 l-0.50967 0 l-5.9762 -9.6246 l0 0.37535 l5.7442 9.2494 l-0.50967 0 l-5.2346 -8.4306 l0 8.4306 l-0.43238 0 l0 -9.1261 l-0.0036718 -0.0073632 l0.0036718 -0.0018359 l0 -4.8225 l0.47471 0 l5.5934 9.0064 l0 -9.0065 l0.43238 0 l0 9.702 l0.2355 0.37718 l0 -10.079 l0.43055 0 l0 10.776 l0.2355 0.37718 l0 -11.154 l0.43238 0 l0 11.849 l0.23368 0.37902 l0 -12.228 l0.43238 0 l0 12.924 l0.2355 0.37718 l0 -13.301 z M87.7552 6.52 l-8.6753 0 l0 -0.43238 l8.6753 0 l0 0.43238 z M87.7552 7.188000000000001 l-8.6753 0 l0 -0.43238 l8.6753 0 l0 0.43238 z M87.7552 7.853999999999999 l-8.6753 0 l0 -0.43238 l8.6753 0 l0 0.43238 z M87.7552 8.522 l-8.6753 0 l0 -0.43238 l8.6753 0 l0 0.43238 z M79.08 9.188 l0 -0.43238 l8.6771 0 l0 0.43238 l-2.7893 0 l0 10.811 l-0.43055 0 l0 -10.811 l-0.23551 0 l0 10.811 l-0.43238 0 l0 -10.811 l-0.23367 0 l0 10.811 l-0.43238 0 l0 -10.811 l-0.23551 0 l0 10.811 l-0.43238 0 l0 -10.811 l-0.23367 0 l0 10.811 l-0.43238 0 l0 -10.811 l-2.7893 0 z M91.50739999999999 12.8292 l0.3919 -0.18031 l3.4076 7.3506 l-0.47654 0 z M92.11639999999998 12.5588 l0.39192 -0.18031 l3.5326 7.621 l-0.47654 0 z M92.6998 12.2422 l0.39376 -0.18215 l3.6836 7.9392 l-0.47654 0 z M88.69237999999999 19.99939454 l-0.43238 0 l0 -13.971 l0.43238 0 l0 13.971 z M89.35839999999999 19.99939454 l-0.43238 0 l0 -13.971 l0.43238 0 l0 13.971 z M90.0264 19.99939454 l-0.43238 0 l0 -13.971 l0.43238 0 l0 13.971 z M90.69239999999999 19.99939454 l-0.43238 0 l0 -13.971 l0.43238 0 l0 13.971 z M94.928 14.428 l2.5852 5.5732 l-0.47654 0 l-3.7498 -8.0884 l0.2208 -0.16191 c0.39558 -0.27784 0.63662 -0.73414 0.63662 -1.218 c0 -0.81876 -0.66606 -1.483 -1.483 -1.483 l-1.3008 0 l0 4.0184 l3.2126 6.931 l-0.47654 0 l-2.736 -5.9026 l0 5.9025 l-0.43238 0 l0 -13.971 l1.7314 0 c2.4858 0 4.5078 2.022 4.5078 4.5078 c0 1.6063 -0.85556 3.0818 -2.2392 3.8914 z M93.82579999999999 12.0472 l0.091992 0.2024 c0.54278 -0.39926 0.87212 -1.0395 0.87212 -1.7166 c0 -1.1757 -0.95676 -2.1306 -2.1306 -2.1306 l-1.3008 0 l0 0.21527 l1.3008 0 c1.0561 0 1.9154 0.85924 1.9154 1.9154 c0 0.5943 -0.27966 1.1518 -0.74884 1.5143 z M94.10359999999999 12.6488 l0.090136 0.19867 c0.77278 -0.51334 1.2438 -1.3836 1.2438 -2.3146 c0 -1.5327 -1.2456 -2.7782 -2.7782 -2.7782 l-1.3008 0 l0 0.21527 l1.3008 0 c1.4131 0 2.563 1.15 2.563 2.563 c0 0.8427 -0.42502 1.6412 -1.1187 2.116 z M94.3796 13.241399999999999 l0.092012 0.19691 c1.0028 -0.62558 1.6173 -1.7222 1.6173 -2.907 c0 -1.8878 -1.5382 -3.426 -3.4278 -3.426 l-1.3008 0 l0 0.21527 l1.3008 0 c1.77 0 3.2106 1.4407 3.2106 3.2106 c0 1.1003 -0.56854 2.1214 -1.4922 2.7102 z M94.65379999999999 13.8338 l0.093848 0.20056 c1.2291 -0.73598 1.989 -2.0608 1.989 -3.4978 c0 -2.2466 -1.8289 -4.0754 -4.0754 -4.0754 l-1.3008 0 l0 0.21344 l1.3008 0 c2.127 0 3.8584 1.7314 3.8584 3.8584 c0 1.3523 -0.71204 2.6016 -1.8657 3.3008 z M104.35079999999999 6.016 l0.46918 0 l-5.8308 13.983 l-0.46918 0 z M105.01859999999999 6.016 l0.46918 0 l-5.8308 13.983 l-0.46734 0 z M105.6884 6.016 l0.46734 0 l-5.8308 13.983 l-0.46734 0 z M106.3562 6.016 l0.46918 0 l-5.8326 13.983 l-0.46734 0 z M112.87899999999999 19.99939454 l-5.5714 -13.54 l-0.11959 0.28886 l5.4518 13.251 l-0.46734 0 l-5.2198 -12.688 l-0.11959 0.28886 l5.1022 12.401 l-0.46734 0 l-4.8702 -11.836 l-0.11959 0.28704 l4.7506 11.549 l-0.46734 0 l-4.5188 -10.984 l-0.11959 0.28704 l4.4012 10.695 l-0.46734 0 l-1.0488 -2.5538 l-6.2778 0 l-1.0653 2.5538 l-0.46918 0 l5.8308 -13.983 l0.5667 0 l5.7534 13.983 l-0.46734 0 z M108.827 17.0132 l-0.092012 -0.22448 l-5.7332 0 l-0.093828 0.22448 l5.9191 0 z M108.557 16.3564 l-0.093848 -0.22448 l-5.1886 0 l-0.093828 0.22448 l5.3763 0 z M108.286 15.6994 l-0.093848 -0.22448 l-4.644 0 l-0.093828 0.22448 l4.8317 0 z M108.0158 15.0426 l-0.091992 -0.22448 l-4.1012 0 l-0.093828 0.22448 l4.287 0 z M107.74539999999999 14.3858 l-1.8583 -4.517 l-1.8841 4.517 l3.7424 0 z M114.8696 13.0168 c0 -2.4656 2.0074 -4.4728 4.4728 -4.4728 l0.86293 0 l0 0.43238 l-0.86293 0 c-2.2282 0 -4.0404 1.8123 -4.0404 4.0404 s1.8123 4.0404 4.0404 4.0404 l0.86293 0 l0 0.43238 l-0.86293 0 c-2.4656 0 -4.4728 -2.0074 -4.4728 -4.4728 z M114.2422 13.0168 c0 -2.8114 2.2888 -5.1004 5.1002 -5.1004 l0.86293 0 l0 0.43238 l-0.86293 0 c-2.574 0 -4.668 2.0938 -4.668 4.668 s2.0938 4.668 4.668 4.668 l0.86293 0 l0 0.43238 l-0.86293 0 c-2.8132 0 -5.1002 -2.2888 -5.1002 -5.1002 z M113.6148 13.0168 c0 -3.1574 2.5704 -5.7276 5.7276 -5.7276 l0.86293 0 l0 0.43238 l-0.86293 0 c-2.92 0 -5.2954 2.3754 -5.2954 5.2954 s2.3754 5.2954 5.2954 5.2954 l0.86293 0 l0 0.43238 l-0.86293 0 c-3.1592 0 -5.7276 -2.5704 -5.7276 -5.7278 z M112.9874 13.0168 c0 -3.505 2.8518 -6.3552 6.3552 -6.3552 l0.86293 0 l0 0.43238 l-0.86293 0 c-3.2658 0 -5.9228 2.6568 -5.9228 5.9228 s2.6568 5.9228 5.9228 5.9228 l0.86293 0 l0 0.43238 l-0.86293 0 c-3.5032 0 -6.3552 -2.85 -6.3552 -6.3552 z M119.3426 6.034000000000001 l0.86294 0.000039062 l0 0.43238 l-0.86293 0 c-3.6118 0 -6.5502 2.9384 -6.5502 6.5502 s2.9384 6.5502 6.5502 6.5502 l0.86293 0 l0 0.43238 l-0.86293 0 c-3.8492 0 -6.9826 -3.1334 -6.9826 -6.9826 s3.1316 -6.9826 6.9826 -6.9826 z M121.65238 19.99939454 l-0.43238 0 l0 -13.958 l0.43238 0 l0 13.958 z M122.3203 19.99939454 l-0.43238 0 l0 -13.958 l0.43238 0 l0 13.958 z M122.9864 19.99939454 l-0.43238 0 l0 -13.958 l0.43238 0 l0 13.958 z M123.6542 19.99939454 l-0.43238 0 l0 -13.958 l0.43238 0 l0 13.958 z M133.264 6.042 l-5.5032 7.3726 l5.2862 6.5852 l-0.55383 0 l-6.725 -8.3754 l-0.14535 0.19318 l6.5686 8.1822 l-0.55383 0 l-6.2816 -7.8234 l-0.14352 0.19318 l6.1232 7.6302 l-0.55383 0 l-5.838 -7.2732 l-0.14352 0.19504 l5.6816 7.0782 l-0.55383 0 l-5.3966 -6.7194 l-0.14352 0.19318 l5.2382 6.5262 l-0.55383 0 l-4.7526 -5.921 l0 5.9209 l-0.43238 0 l0 -13.958 l0.43238 0 l0 6.8004 l5.0764 -6.8004 l0.5391 0 l-3.9006 5.2236 l0.15271 0.18951 l4.0404 -5.413 l0.5391 0 l-4.3 5.7608 l0.15088 0.18951 l4.4416 -5.9504 l0.54094 0 l-4.7028 6.298 l0.15088 0.18768 l4.8446 -6.4858 l0.5391 0 l-5.104 6.8354 l0.15271 0.18951 l5.2438 -7.0248 l0.5391 0 z M138.92 6.021000000000001 l0.45814 0 l5.0304 13.978 l-0.45998 0 z M139.58973999999998 6.021000000000001 l0.45814 0 l5.0304 13.978 l-0.45998 0 z M140.25949999999997 6.021000000000001 l0.45998 0 l5.0286 13.978 l-0.45998 0 z M140.92919999999998 6.021000000000001 l0.45814 0 l5.0304 13.978 l-0.45998 0 z M161.004 6.021000000000001 l0.45818 -0.000039062 l-5.0286 13.978 l-0.48941 0 l-4.414 -12.267 l-0.10488 0.29256 l4.3072 11.974 l-0.45814 0 l-4.0792 -11.336 l-0.10488 0.29256 l3.9724 11.043 l-0.45814 0 l-3.7442 -10.405 l-0.10488 0.29254 l3.6376 10.112 l-0.45814 0 l-3.4094 -9.4738 l-0.13064 0.3643 l0.045996 -0.016563 l3.2824 9.126 l-0.45814 0 l-3.0746 -8.5428 l-3.0746 8.5428 l-0.48941 0 l-5.0286 -13.978 l0.45998 0 l3.4738 9.6596 l3.0892 -8.5852 l0.45814 0 l-3.3174 9.2218 l0.10488 0.29256 l3.4242 -9.5142 l0.45814 0 l-3.6522 10.153 l0.10488 0.29256 l3.759 -10.445 l0.45814 0 l-3.9872 11.084 l0.10488 0.29254 l4.0938 -11.376 l0.45814 0 l-4.311 11.985 l-0.023926 -0.0073632 l0.11775 0.32936 l4.4288 -12.307 l0.45998 0 l3.0892 8.5852 l3.4756 -9.6596 l0.45814 0 l-3.7056 10.296 l0.10672 0.29256 l3.8104 -10.589 l0.45814 0 l-4.0386 11.227 l0.10488 0.29256 l4.1454 -11.52 l0.45814 0 l-4.3754 12.158 l0.10672 0.29256 l4.4802 -12.451 l0.45814 0 l-4.6992 13.06 l-0.023926 -0.0073632 l0.11959 0.32936 z M162.41237999999998 19.99939454 l-0.43238 0 l0 -13.978 l0.43238 0 l0 13.978 z M163.0803 19.99939454 l-0.43238 0 l0 -13.978 l0.43238 0 l0 13.978 z M163.7464 19.99939454 l-0.43238 0 l0 -13.978 l0.43238 0 l0 13.978 z M164.4142 19.99939454 l-0.43238 0 l0 -13.978 l0.43238 0 l0 13.978 z M165.0802 19.99939454 l-0.43238 0 l0 -13.978 l0.43238 0 l0 13.978 z M174.27519999999998 6.52 l-8.6753 0 l0 -0.43238 l8.6753 0 l0 0.43238 z M174.27519999999998 7.188000000000001 l-8.6753 0 l0 -0.43238 l8.6753 0 l0 0.43238 z M174.27519999999998 7.853999999999999 l-8.6753 0 l0 -0.43238 l8.6753 0 l0 0.43238 z M174.27519999999998 8.522 l-8.6753 0 l0 -0.43238 l8.6753 0 l0 0.43238 z M165.6 9.188 l0 -0.43238 l8.6771 0 l0 0.43238 l-2.7893 0 l0 10.811 l-0.43055 0 l0 -10.811 l-0.23551 0 l0 10.811 l-0.43238 0 l0 -10.811 l-0.23367 0 l0 10.811 l-0.43238 0 l0 -10.811 l-0.23551 0 l0 10.811 l-0.43238 0 l0 -10.811 l-0.23367 0 l0 10.811 l-0.43238 0 l0 -10.811 l-2.7893 0 z M175.21238 19.99939454 l-0.43238 0 l0 -13.978 l0.43238 0 l0 13.978 z M175.8803 19.99939454 l-0.43238 0 l0 -13.978 l0.43238 0 l0 13.978 z M176.5464 19.99939454 l-0.43238 0 l0 -13.978 l0.43238 0 l0 13.978 z M177.2124 19.99939454 l-0.43238 0 l0 -13.978 l0.43238 0 l0 13.978 z M183.2786 12.1704 l0 -6.149 l0.43238 0 l0 13.98 l-0.43238 0 l0 -4.7305 l-5.3984 0 l0 4.7286 l-0.43238 0 l0 -13.978 l0.43238 0 l0 6.149 l5.3984 0 z M183.2786 12.6028 l-5.3984 0 l0 0.23551 l5.3984 0 l0 -0.23551 z M177.8802 13.5044 l5.3984 0 l0 -0.23551 l-5.3984 0 l0 0.23551 z M183.2786 13.9368 l-5.3984 0 l0 0.23551 l5.3984 0 l0 -0.23551 z M177.8802 14.8384 l5.3984 0 l0 -0.23551 l-5.3984 0 l0 0.23551 z M184.377 19.99939454 l-0.43238 0 l0 -13.978 l0.43238 0 l0 13.978 z M185.04500000000002 19.99939454 l-0.43238 0 l0 -13.978 l0.43238 0 l0 13.978 z M185.711 19.99939454 l-0.43238 0 l0 -13.978 l0.43238 0 l0 13.978 z M186.379 19.99939454 l-0.43238 0 l0 -13.978 l0.43238 0 l0 13.978 z M196.85299999999998 11.3334 c2.3754 0.018398 4.3036 1.954 4.3036 4.333 c0 2.3882 -1.943 4.333 -4.333 4.333 c-1.7829 0 -3.3598 -1.069 -4.022 -2.7268 l0.3459 -0.16008 l0.045996 -0.018398 c0.59062 1.5014 2.0166 2.4728 3.6284 2.4728 c2.1508 0 3.9006 -1.7498 3.9006 -3.9006 s-1.7498 -3.9006 -3.9006 -3.9006 l0 -0.0055273 c-0.92732 -0.016563 -1.678 -0.7746 -1.678 -1.7075 c0 -0.94204 0.76724 -1.7093 1.7093 -1.7093 c0.69732 0 1.2971 0.41398 1.5621 1.0138 l-0.39192 0.18215 c-0.19688 -0.45078 -0.64582 -0.76358 -1.1702 -0.76358 c-0.70286 0 -1.2769 0.57406 -1.2769 1.2788 s0.57222 1.2788 1.2769 1.2788 z M194.9194 10.0546 c0 1.0672 0.86842 1.9338 1.9337 1.9356 c2.0148 0.016563 3.6468 1.6596 3.6468 3.6762 c0 2.0276 -1.6504 3.678 -3.678 3.678 c-1.5161 0 -2.8776 -0.9402 -3.426 -2.3478 l0.39192 -0.18215 c0.47838 1.2567 1.6872 2.0976 3.034 2.0976 c1.7903 0 3.2456 -1.4554 3.2456 -3.2456 s-1.4554 -3.2456 -3.2456 -3.2456 l0 -0.0018359 c-1.2898 -0.016563 -2.3348 -1.0708 -2.3348 -2.3644 c0 -1.3045 1.0616 -2.3662 2.3662 -2.3662 c0.9402 0 1.7774 0.56302 2.1546 1.3947 l-0.39192 0.18215 c-0.30542 -0.68078 -0.99356 -1.1445 -1.7626 -1.1445 c-1.0672 0 -1.9338 0.8666 -1.9338 1.9338 z M199.60199999999998 8.809 l-0.39192 0.18398 c-0.41398 -0.9126 -1.3376 -1.5253 -2.357 -1.5253 c-1.4278 0 -2.5888 1.161 -2.5888 2.5888 s1.161 2.5888 2.5888 2.5888 c1.6504 0.016563 2.9898 1.3634 2.9898 3.0194 c0 1.6651 -1.3542 3.0212 -3.0212 3.0212 c-1.2585 0 -2.392 -0.80038 -2.828 -1.9687 l0.39376 -0.18215 c0.3643 1.0175 1.345 1.7185 2.4342 1.7185 c1.4278 0 2.5888 -1.161 2.5888 -2.5888 s-1.161 -2.5888 -2.5888 -2.5888 l0 -0.0018359 c-1.6504 -0.016563 -2.9898 -1.3634 -2.9898 -3.0194 c0 -1.6651 1.3542 -3.0212 3.0212 -3.0212 c1.1886 0 2.265 0.71388 2.7488 1.7755 z M200.19979999999998 8.533 l-0.39376 0.18031 c-0.52254 -1.15 -1.678 -1.9043 -2.955 -1.9043 c-1.7903 0 -3.2456 1.4554 -3.2456 3.2456 s1.4554 3.2456 3.2456 3.2456 l0 0.0018359 c1.2898 0.016563 2.3348 1.0708 2.3348 2.3644 c0 1.3045 -1.0616 2.3662 -2.3662 2.3662 c-1.0101 0 -1.9043 -0.65318 -2.2318 -1.5897 l0.39376 -0.18215 c0.25574 0.78748 0.99908 1.3395 1.8399 1.3395 c1.0672 0 1.9338 -0.8666 1.9338 -1.9338 s-0.8666 -1.9338 -1.9338 -1.9338 c-2.0148 -0.016563 -3.6468 -1.6596 -3.6468 -3.6762 c0 -2.0276 1.6504 -3.678 3.678 -3.678 c1.4462 0 2.7526 0.85374 3.3468 2.1546 z M196.8218 14.387599999999999 c-2.3736 -0.016563 -4.3018 -1.954 -4.3018 -4.3312 c0 -2.39 1.943 -4.333 4.333 -4.333 c1.7148 0 3.2346 0.98804 3.9394 2.5354 l-0.39192 0.18215 c-0.63478 -1.3947 -2.0038 -2.2852 -3.5474 -2.2852 c-2.1508 0 -3.9006 1.7498 -3.9006 3.9006 s1.7498 3.9006 3.9006 3.9006 l0 0.0018359 c0.92732 0.016563 1.678 0.7746 1.678 1.7075 c0 0.94204 -0.7654 1.7093 -1.7093 1.7093 c-0.77094 0 -1.4204 -0.50598 -1.6339 -1.2107 l0.39558 -0.18398 c0.13984 0.5575 0.64032 0.96228 1.2383 0.96228 c0.70468 0 1.2788 -0.57222 1.2788 -1.2769 s-0.57406 -1.2788 -1.2788 -1.2788 z M206.07959999999997 6.021000000000001 l0.43975 0 l-2.4986 13.978 l-0.43975 0 z M205.44099999999997 6.021000000000001 l0.43791 0 l-2.5004 13.978 l-0.43791 0 z M204.79899999999998 6.021000000000001 l0.43975 0 l-2.4986 13.978 l-0.43975 0 z M204.16039999999998 6.021000000000001 l0.43791 0 l-2.4986 13.978 l-0.43975 0 z M216.06499999999997 6.021000000000001 l-0.000039062 0.003711 l0.46551 0 l2.4986 13.978 l-0.43975 0 l-1.5566 -8.701 l-3.7038 8.701 l-0.46918 0 l4.035 -9.4774 l-0.064394 -0.35696 l-4.1876 9.8344 l-0.46918 0 l4.517 -10.611 l-0.064394 -0.35696 l-4.6698 10.968 l-0.46918 0 l4.999 -11.744 l-0.062558 -0.3551 l-5.1518 12.099 l-0.46918 0 l5.4812 -12.878 l-0.064394 -0.35696 l-5.6338 13.233 l-0.8335 0 l-3.5658 -8.5226 l-1.5235 8.5226 l-0.43975 0 l2.4986 -13.978 l0.43975 0 l-0.0018359 0.0091992 l4.3754 10.631 z M210.16599999999997 19.87615 l0.093828 -0.22262 l-3.8712 -9.3212 l-0.064394 0.36062 z M210.49719999999996 19.09788 l0.10855 -0.2539 l-4.013 -9.6596 l-0.064394 0.36062 z M210.84299999999996 18.2865 l0.10855 -0.2539 l-4.1528 -9.9964 l-0.064394 0.36062 z M211.18899999999996 17.475 l0.1067 -0.25208 l-4.2796 -10.399 l-0.07543 0.42502 z M216.72299999999996 6.022 l0.43975 0 l2.4986 13.978 l-0.43791 0 z M217.36399999999998 6.022 l0.43975 0 l2.4986 13.978 l-0.43975 0 z M218.00399999999996 6.022 l0.43791 0 l2.5004 13.978 l-0.43975 0 z M219.08199999999997 6.022 l2.5004 13.978 l-0.43975 0 l-2.4986 -13.978 l0.43791 0 z M228.43079999999998 6.016 l0.46918 0 l-5.8308 13.983 l-0.46918 0 z M229.09859999999998 6.016 l0.46918 0 l-5.8308 13.983 l-0.46734 0 z M229.76839999999996 6.016 l0.46734 0 l-5.8308 13.983 l-0.46734 0 z M230.43619999999996 6.016 l0.46918 0 l-5.8326 13.983 l-0.46734 0 z M236.95899999999997 19.99939454 l-5.5714 -13.54 l-0.11959 0.28886 l5.4518 13.251 l-0.46734 0 l-5.2198 -12.688 l-0.11959 0.28886 l5.1022 12.401 l-0.46734 0 l-4.8702 -11.836 l-0.11959 0.28704 l4.7506 11.549 l-0.46734 0 l-4.5188 -10.984 l-0.11959 0.28704 l4.4012 10.695 l-0.46734 0 l-1.0488 -2.5538 l-6.2778 0 l-1.0653 2.5538 l-0.46918 0 l5.8308 -13.983 l0.5667 0 l5.7534 13.983 l-0.46734 0 z M232.90699999999995 17.0132 l-0.092012 -0.22448 l-5.7332 0 l-0.093828 0.22448 l5.9191 0 z M232.63699999999997 16.3564 l-0.093848 -0.22448 l-5.1886 0 l-0.093828 0.22448 l5.3763 0 z M232.36599999999996 15.6994 l-0.093848 -0.22448 l-4.644 0 l-0.093828 0.22448 l4.8317 0 z M232.09579999999997 15.0426 l-0.091992 -0.22448 l-4.1012 0 l-0.093828 0.22448 l4.287 0 z M231.82539999999997 14.3858 l-1.8583 -4.517 l-1.8841 4.517 l3.7424 0 z M241.68739999999997 12.8292 l0.3919 -0.18031 l3.4076 7.3506 l-0.47654 0 z M242.29639999999998 12.5588 l0.39192 -0.18031 l3.5326 7.621 l-0.47654 0 z M242.87979999999996 12.2422 l0.39376 -0.18215 l3.6836 7.9392 l-0.47654 0 z M238.87237999999996 19.99939454 l-0.43238 0 l0 -13.971 l0.43238 0 l0 13.971 z M239.53839999999997 19.99939454 l-0.43238 0 l0 -13.971 l0.43238 0 l0 13.971 z M240.20639999999997 19.99939454 l-0.43238 0 l0 -13.971 l0.43238 0 l0 13.971 z M240.87239999999997 19.99939454 l-0.43238 0 l0 -13.971 l0.43238 0 l0 13.971 z M245.10799999999998 14.428 l2.5852 5.5732 l-0.47654 0 l-3.7498 -8.0884 l0.2208 -0.16191 c0.39558 -0.27784 0.63662 -0.73414 0.63662 -1.218 c0 -0.81876 -0.66606 -1.483 -1.483 -1.483 l-1.3008 0 l0 4.0184 l3.2126 6.931 l-0.47654 0 l-2.736 -5.9026 l0 5.9025 l-0.43238 0 l0 -13.971 l1.7314 0 c2.4858 0 4.5078 2.022 4.5078 4.5078 c0 1.6063 -0.85556 3.0818 -2.2392 3.8914 z M244.00579999999997 12.0472 l0.091992 0.2024 c0.54278 -0.39926 0.87212 -1.0395 0.87212 -1.7166 c0 -1.1757 -0.95676 -2.1306 -2.1306 -2.1306 l-1.3008 0 l0 0.21527 l1.3008 0 c1.0561 0 1.9154 0.85924 1.9154 1.9154 c0 0.5943 -0.27966 1.1518 -0.74884 1.5143 z M244.28359999999998 12.6488 l0.090136 0.19867 c0.77278 -0.51334 1.2438 -1.3836 1.2438 -2.3146 c0 -1.5327 -1.2456 -2.7782 -2.7782 -2.7782 l-1.3008 0 l0 0.21527 l1.3008 0 c1.4131 0 2.563 1.15 2.563 2.563 c0 0.8427 -0.42502 1.6412 -1.1187 2.116 z M244.55959999999996 13.241399999999999 l0.092012 0.19691 c1.0028 -0.62558 1.6173 -1.7222 1.6173 -2.907 c0 -1.8878 -1.5382 -3.426 -3.4278 -3.426 l-1.3008 0 l0 0.21527 l1.3008 0 c1.77 0 3.2106 1.4407 3.2106 3.2106 c0 1.1003 -0.56854 2.1214 -1.4922 2.7102 z M244.83379999999997 13.8338 l0.093848 0.20056 c1.2291 -0.73598 1.989 -2.0608 1.989 -3.4978 c0 -2.2466 -1.8289 -4.0754 -4.0754 -4.0754 l-1.3008 0 l0 0.21344 l1.3008 0 c2.127 0 3.8584 1.7314 3.8584 3.8584 c0 1.3523 -0.71204 2.6016 -1.8657 3.3008 z M256.87519999999995 6.52 l-8.6753 0 l0 -0.43238 l8.6753 0 l0 0.43238 z M256.87519999999995 7.188000000000001 l-8.6753 0 l0 -0.43238 l8.6753 0 l0 0.43238 z M256.87519999999995 7.853999999999999 l-8.6753 0 l0 -0.43238 l8.6753 0 l0 0.43238 z M256.87519999999995 8.522 l-8.6753 0 l0 -0.43238 l8.6753 0 l0 0.43238 z M248.19999999999996 9.188 l0 -0.43238 l8.6771 0 l0 0.43238 l-2.7893 0 l0 10.811 l-0.43055 0 l0 -10.811 l-0.23551 0 l0 10.811 l-0.43238 0 l0 -10.811 l-0.23367 0 l0 10.811 l-0.43238 0 l0 -10.811 l-0.23551 0 l0 10.811 l-0.43238 0 l0 -10.811 l-0.23367 0 l0 10.811 l-0.43238 0 l0 -10.811 l-2.7893 0 z M270.69519999999994 6.52 l-8.6753 0 l0 -0.43238 l8.6753 0 l0 0.43238 z M270.69519999999994 7.188000000000001 l-8.6753 0 l0 -0.43238 l8.6753 0 l0 0.43238 z M270.69519999999994 7.853999999999999 l-8.6753 0 l0 -0.43238 l8.6753 0 l0 0.43238 z M270.69519999999994 8.522 l-8.6753 0 l0 -0.43238 l8.6753 0 l0 0.43238 z M262.0199999999999 9.188 l0 -0.43238 l8.6771 0 l0 0.43238 l-2.7893 0 l0 10.811 l-0.43055 0 l0 -10.811 l-0.23551 0 l0 10.811 l-0.43238 0 l0 -10.811 l-0.23367 0 l0 10.811 l-0.43238 0 l0 -10.811 l-0.23551 0 l0 10.811 l-0.43238 0 l0 -10.811 l-0.23367 0 l0 10.811 l-0.43238 0 l0 -10.811 l-2.7893 0 z M274.44739999999996 12.8292 l0.3919 -0.18031 l3.4076 7.3506 l-0.47654 0 z M275.05639999999994 12.5588 l0.39192 -0.18031 l3.5326 7.621 l-0.47654 0 z M275.6397999999999 12.2422 l0.39376 -0.18215 l3.6836 7.9392 l-0.47654 0 z M271.63237999999996 19.99939454 l-0.43238 0 l0 -13.971 l0.43238 0 l0 13.971 z M272.29839999999996 19.99939454 l-0.43238 0 l0 -13.971 l0.43238 0 l0 13.971 z M272.9663999999999 19.99939454 l-0.43238 0 l0 -13.971 l0.43238 0 l0 13.971 z M273.6323999999999 19.99939454 l-0.43238 0 l0 -13.971 l0.43238 0 l0 13.971 z M277.86799999999994 14.428 l2.5852 5.5732 l-0.47654 0 l-3.7498 -8.0884 l0.2208 -0.16191 c0.39558 -0.27784 0.63662 -0.73414 0.63662 -1.218 c0 -0.81876 -0.66606 -1.483 -1.483 -1.483 l-1.3008 0 l0 4.0184 l3.2126 6.931 l-0.47654 0 l-2.736 -5.9026 l0 5.9025 l-0.43238 0 l0 -13.971 l1.7314 0 c2.4858 0 4.5078 2.022 4.5078 4.5078 c0 1.6063 -0.85556 3.0818 -2.2392 3.8914 z M276.76579999999996 12.0472 l0.091992 0.2024 c0.54278 -0.39926 0.87212 -1.0395 0.87212 -1.7166 c0 -1.1757 -0.95676 -2.1306 -2.1306 -2.1306 l-1.3008 0 l0 0.21527 l1.3008 0 c1.0561 0 1.9154 0.85924 1.9154 1.9154 c0 0.5943 -0.27966 1.1518 -0.74884 1.5143 z M277.0435999999999 12.6488 l0.090136 0.19867 c0.77278 -0.51334 1.2438 -1.3836 1.2438 -2.3146 c0 -1.5327 -1.2456 -2.7782 -2.7782 -2.7782 l-1.3008 0 l0 0.21527 l1.3008 0 c1.4131 0 2.563 1.15 2.563 2.563 c0 0.8427 -0.42502 1.6412 -1.1187 2.116 z M277.3195999999999 13.241399999999999 l0.092012 0.19691 c1.0028 -0.62558 1.6173 -1.7222 1.6173 -2.907 c0 -1.8878 -1.5382 -3.426 -3.4278 -3.426 l-1.3008 0 l0 0.21527 l1.3008 0 c1.77 0 3.2106 1.4407 3.2106 3.2106 c0 1.1003 -0.56854 2.1214 -1.4922 2.7102 z M277.59379999999993 13.8338 l0.093848 0.20056 c1.2291 -0.73598 1.989 -2.0608 1.989 -3.4978 c0 -2.2466 -1.8289 -4.0754 -4.0754 -4.0754 l-1.3008 0 l0 0.21344 l1.3008 0 c2.127 0 3.8584 1.7314 3.8584 3.8584 c0 1.3523 -0.71204 2.6016 -1.8657 3.3008 z M287.29079999999993 6.016 l0.46918 0 l-5.8308 13.983 l-0.46918 0 z M287.95859999999993 6.016 l0.46918 0 l-5.8308 13.983 l-0.46734 0 z M288.62839999999994 6.016 l0.46734 0 l-5.8308 13.983 l-0.46734 0 z M289.29619999999994 6.016 l0.46918 0 l-5.8326 13.983 l-0.46734 0 z M295.8189999999999 19.99939454 l-5.5714 -13.54 l-0.11959 0.28886 l5.4518 13.251 l-0.46734 0 l-5.2198 -12.688 l-0.11959 0.28886 l5.1022 12.401 l-0.46734 0 l-4.8702 -11.836 l-0.11959 0.28704 l4.7506 11.549 l-0.46734 0 l-4.5188 -10.984 l-0.11959 0.28704 l4.4012 10.695 l-0.46734 0 l-1.0488 -2.5538 l-6.2778 0 l-1.0653 2.5538 l-0.46918 0 l5.8308 -13.983 l0.5667 0 l5.7534 13.983 l-0.46734 0 z M291.76699999999994 17.0132 l-0.092012 -0.22448 l-5.7332 0 l-0.093828 0.22448 l5.9191 0 z M291.4969999999999 16.3564 l-0.093848 -0.22448 l-5.1886 0 l-0.093828 0.22448 l5.3763 0 z M291.22599999999994 15.6994 l-0.093848 -0.22448 l-4.644 0 l-0.093828 0.22448 l4.8317 0 z M290.9557999999999 15.0426 l-0.091992 -0.22448 l-4.1012 0 l-0.093828 0.22448 l4.287 0 z M290.6853999999999 14.3858 l-1.8583 -4.517 l-1.8841 4.517 l3.7424 0 z M297.8095999999999 13.0168 c0 -2.4656 2.0074 -4.4728 4.4728 -4.4728 l0.86293 0 l0 0.43238 l-0.86293 0 c-2.2282 0 -4.0404 1.8123 -4.0404 4.0404 s1.8123 4.0404 4.0404 4.0404 l0.86293 0 l0 0.43238 l-0.86293 0 c-2.4656 0 -4.4728 -2.0074 -4.4728 -4.4728 z M297.1821999999999 13.0168 c0 -2.8114 2.2888 -5.1004 5.1002 -5.1004 l0.86293 0 l0 0.43238 l-0.86293 0 c-2.574 0 -4.668 2.0938 -4.668 4.668 s2.0938 4.668 4.668 4.668 l0.86293 0 l0 0.43238 l-0.86293 0 c-2.8132 0 -5.1002 -2.2888 -5.1002 -5.1002 z M296.5547999999999 13.0168 c0 -3.1574 2.5704 -5.7276 5.7276 -5.7276 l0.86293 0 l0 0.43238 l-0.86293 0 c-2.92 0 -5.2954 2.3754 -5.2954 5.2954 s2.3754 5.2954 5.2954 5.2954 l0.86293 0 l0 0.43238 l-0.86293 0 c-3.1592 0 -5.7276 -2.5704 -5.7276 -5.7278 z M295.9273999999999 13.0168 c0 -3.505 2.8518 -6.3552 6.3552 -6.3552 l0.86293 0 l0 0.43238 l-0.86293 0 c-3.2658 0 -5.9228 2.6568 -5.9228 5.9228 s2.6568 5.9228 5.9228 5.9228 l0.86293 0 l0 0.43238 l-0.86293 0 c-3.5032 0 -6.3552 -2.85 -6.3552 -6.3552 z M302.2825999999999 6.034000000000001 l0.86294 0.000039062 l0 0.43238 l-0.86293 0 c-3.6118 0 -6.5502 2.9384 -6.5502 6.5502 s2.9384 6.5502 6.5502 6.5502 l0.86293 0 l0 0.43238 l-0.86293 0 c-3.8492 0 -6.9826 -3.1334 -6.9826 -6.9826 s3.1316 -6.9826 6.9826 -6.9826 z M304.59237999999993 19.99939454 l-0.43238 0 l0 -13.958 l0.43238 0 l0 13.958 z M305.2602999999999 19.99939454 l-0.43238 0 l0 -13.958 l0.43238 0 l0 13.958 z M305.9263999999999 19.99939454 l-0.43238 0 l0 -13.958 l0.43238 0 l0 13.958 z M306.5941999999999 19.99939454 l-0.43238 0 l0 -13.958 l0.43238 0 l0 13.958 z M316.2039999999999 6.042 l-5.5032 7.3726 l5.2862 6.5852 l-0.55383 0 l-6.725 -8.3754 l-0.14535 0.19318 l6.5686 8.1822 l-0.55383 0 l-6.2816 -7.8234 l-0.14352 0.19318 l6.1232 7.6302 l-0.55383 0 l-5.838 -7.2732 l-0.14352 0.19504 l5.6816 7.0782 l-0.55383 0 l-5.3966 -6.7194 l-0.14352 0.19318 l5.2382 6.5262 l-0.55383 0 l-4.7526 -5.921 l0 5.9209 l-0.43238 0 l0 -13.958 l0.43238 0 l0 6.8004 l5.0764 -6.8004 l0.5391 0 l-3.9006 5.2236 l0.15271 0.18951 l4.0404 -5.413 l0.5391 0 l-4.3 5.7608 l0.15088 0.18951 l4.4416 -5.9504 l0.54094 0 l-4.7028 6.298 l0.15088 0.18768 l4.8446 -6.4858 l0.5391 0 l-5.104 6.8354 l0.15271 0.18951 l5.2438 -7.0248 l0.5391 0 z M317.65237999999994 20.0012305 l-0.43238 0 l0 -13.982 l0.43238 0 l0 13.982 z M318.31839999999994 20.0012305 l-0.43238 0 l0 -13.982 l0.43238 0 l0 13.982 z M318.9863999999999 20.0012305 l-0.43238 0 l0 -13.982 l0.43238 0 l0 13.982 z M319.6523999999999 20.0012305 l-0.43238 0 l0 -13.982 l0.43238 0 l0 13.982 z M325.3911999999999 6.449999999999999 l-5.0708 0.000019531 l0 0.23551 l5.0708 0 l0 0.43238 l-5.0708 0 l0 0.23367 l5.0708 0 l0 0.43238 l-5.0708 0 l0 0.23551 l5.0708 0 l0 0.43238 l-5.0708 0 l0 0.23367 l5.0708 0 l0 0.43238 l-5.0708 0 l0 2.6863 l3.6891 0 l0 0.43238 l-3.6891 0 l0 0.23551 l3.6891 0 l0 0.43055 l-3.6891 0 l0 0.23551 l3.6891 0 l0 0.43238 l-3.6891 0 l0 0.23367 l3.6891 0 l0 0.43238 l-3.6891 0 l0 0.23551 l3.6891 0 l0 0.43238 l-3.6891 0 l0 1.9963 l5.0708 0 l0 0.43238 l-5.0708 0 l0 0.23367 l5.0708 0 l0 0.43238 l-5.0708 0 l0 0.23551 l5.0708 0 l0 0.43055 l-5.0708 0 l0 0.23551 l5.0708 0 l0 0.43238 l-5.0708 0 l0 0.23367 l5.0708 0 l0 0.43238 l-5.5032 0 l0 -13.98 l5.5032 0 l0 0.43055 z M329.64739999999995 12.8292 l0.3919 -0.18031 l3.4076 7.3506 l-0.47654 0 z M330.2563999999999 12.5588 l0.39192 -0.18031 l3.5326 7.621 l-0.47654 0 z M330.8397999999999 12.2422 l0.39376 -0.18215 l3.6836 7.9392 l-0.47654 0 z M326.83237999999994 19.99939454 l-0.43238 0 l0 -13.971 l0.43238 0 l0 13.971 z M327.49839999999995 19.99939454 l-0.43238 0 l0 -13.971 l0.43238 0 l0 13.971 z M328.1663999999999 19.99939454 l-0.43238 0 l0 -13.971 l0.43238 0 l0 13.971 z M328.8323999999999 19.99939454 l-0.43238 0 l0 -13.971 l0.43238 0 l0 13.971 z M333.0679999999999 14.428 l2.5852 5.5732 l-0.47654 0 l-3.7498 -8.0884 l0.2208 -0.16191 c0.39558 -0.27784 0.63662 -0.73414 0.63662 -1.218 c0 -0.81876 -0.66606 -1.483 -1.483 -1.483 l-1.3008 0 l0 4.0184 l3.2126 6.931 l-0.47654 0 l-2.736 -5.9026 l0 5.9025 l-0.43238 0 l0 -13.971 l1.7314 0 c2.4858 0 4.5078 2.022 4.5078 4.5078 c0 1.6063 -0.85556 3.0818 -2.2392 3.8914 z M331.96579999999994 12.0472 l0.091992 0.2024 c0.54278 -0.39926 0.87212 -1.0395 0.87212 -1.7166 c0 -1.1757 -0.95676 -2.1306 -2.1306 -2.1306 l-1.3008 0 l0 0.21527 l1.3008 0 c1.0561 0 1.9154 0.85924 1.9154 1.9154 c0 0.5943 -0.27966 1.1518 -0.74884 1.5143 z M332.2435999999999 12.6488 l0.090136 0.19867 c0.77278 -0.51334 1.2438 -1.3836 1.2438 -2.3146 c0 -1.5327 -1.2456 -2.7782 -2.7782 -2.7782 l-1.3008 0 l0 0.21527 l1.3008 0 c1.4131 0 2.563 1.15 2.563 2.563 c0 0.8427 -0.42502 1.6412 -1.1187 2.116 z M332.5195999999999 13.241399999999999 l0.092012 0.19691 c1.0028 -0.62558 1.6173 -1.7222 1.6173 -2.907 c0 -1.8878 -1.5382 -3.426 -3.4278 -3.426 l-1.3008 0 l0 0.21527 l1.3008 0 c1.77 0 3.2106 1.4407 3.2106 3.2106 c0 1.1003 -0.56854 2.1214 -1.4922 2.7102 z M332.7937999999999 13.8338 l0.093848 0.20056 c1.2291 -0.73598 1.989 -2.0608 1.989 -3.4978 c0 -2.2466 -1.8289 -4.0754 -4.0754 -4.0754 l-1.3008 0 l0 0.21344 l1.3008 0 c2.127 0 3.8584 1.7314 3.8584 3.8584 c0 1.3523 -0.71204 2.6016 -1.8657 3.3008 z"></path></g><g id="SvgjsG20479" featurekey="nameLeftFeature-0" transform="matrix(1.7580097049628103,0,0,1.7580097049628103,-1.2190037644468523,3.991210932025565)" fill="url(#SvgjsLinearGradient20489)"><path d="M6.5137 20.19531 c-3.0273 0 -5.3906 -1.4551 -5.8203 -4.1016 l3.0273 -0.69336 c0.19531 1.582 1.3574 2.4023 2.9102 2.4023 c1.1914 0 2.1387 -0.52734 2.1289 -1.7188 c-0.0097656 -1.3281 -1.5723 -1.748 -3.291 -2.2754 c-2.0703 -0.64453 -4.2871 -1.4063 -4.2871 -4.0039 c0 -2.627 2.1484 -4.1113 4.9805 -4.1113 c2.4805 0 4.9805 1.0059 5.5469 3.7109 l-2.832 0.70313 c-0.26367 -1.4063 -1.2109 -2.0215 -2.5391 -2.0215 c-1.1816 0 -2.1875 0.48828 -2.1875 1.6504 c0 1.084 1.3867 1.4453 2.9883 1.9238 c2.1289 0.64453 4.6484 1.4648 4.6484 4.2773 c0 2.998 -2.5098 4.2578 -5.2734 4.2578 z M32.587843750000005 20 l-2.9199 0 l-0.92773 -10.635 l-3.5742 10.635 l-1.8945 0 l-3.5742 -10.635 l-0.9375 10.635 l-2.9297 0 l1.1816 -14.111 l4.1797 0 l3.0078 8.8574 l3.0469 -8.8574 l4.1797 0 z M47.021953124999996 20 l-1.0254 -2.9102 l-5.9277 0 l-1.0254 2.9102 l-2.998 0 l5.1953 -14.111 l3.584 0 l5.1953 14.111 l-2.998 0 z M40.927753125 14.6387 l4.209 0 l-2.0996 -5.9863 z M61.513628125 20 l-3.6719 -6.2109 l-0.84961 0 l0 6.2109 l-2.9297 0 l0 -14.111 l5.1172 0 c3.1934 0 4.541 1.8848 4.541 4.2188 c0 1.8945 -1.0742 3.125 -2.9883 3.5352 l4.248 6.3574 l-3.4668 0 z M56.992228125 8.32 l0 3.3691 l1.7285 0 c1.5625 0 2.1973 -0.66406 2.1973 -1.6797 c0 -1.0059 -0.63477 -1.6895 -2.1973 -1.6895 l-1.7285 0 z M77.2365625 5.888999999999999 l0 2.5781 l-3.3496 0 l0 11.533 l-2.9004 0 l0 -11.533 l-3.3691 0 l0 -2.5781 l9.6191 0 z"></path></g><g id="SvgjsG20480" featurekey="inlineSymbolFeature-0" transform="matrix(0.6327714384416174,0,0,0.6327714384416174,141.67852271199806,-3.9860757802112126)" fill="url(#SvgjsLinearGradient20492)"><g xmlns="http://www.w3.org/2000/svg" fill="none" stroke="black" font-family="Times New Roman" font-size="16" transform="scale(1 -1)"><g transform="translate(0 -96)"><g><path d="M 21.633,34.925 C 24.973,46.855 40.837,53.71 46.922,66.223 C 49.866,72.279 48.49,83.461 43.464,87.939 C 43.197,88.178 42.09,90.326 43.217,89.521 C 54.416,81.327 63.521,70.509 59.309,60.068 C 53.464,45.577 38.409,38.34 38.519,23.585 C 38.566,17.447 43.088,12.523 48.838,7.375 L 49.073,6.299 C 34.143,10.56 17.742,21.028 21.633,34.925 Z M 59.314,18.723 C 67.987,26.524 73.282,31.263 71.043,40.298 C 73.766,36.119 76.295,30.323 74.135,25.806 C 72.203,21.769 70.28,18.956 63.244,15.02 C 59.515,12.935 56.712,10.677 54.37,6.898 C 54.248,10.853 55.011,14.852 59.314,18.723 Z M 49.686,32.153 C 53.003,38.255 57.845,42.622 62.538,48.882 C 65.869,53.325 68.92,60.704 65.731,66.728 L 65.937,67.016 C 70.824,61.556 71.028,52.654 69.495,46.059 C 67.086,35.69 58.5,31.5 53.511,23.918 C 51.557,20.948 50.446,17.311 51,13.5 C 45.461,18.021 46.717,26.69 49.686,32.153 Z" stroke-linejoin="miter" stroke-linecap="round" stroke="none" stroke-width="0.75" fill="url(#SvgjsLinearGradient20492)" marker-start="none" marker-end="none" stroke-miterlimit="79.8403193612775"></path></g></g></g></g><g id="SvgjsG20481" featurekey="nameRightFeature-0" transform="matrix(1.7580171039701997,0,0,1.7580171039701997,195.79721989233582,3.991061506776786)" fill="url(#SvgjsLinearGradient20495)"><path d="M17.129140624999998 5.888999999999999 l0 2.5781 l-3.3496 0 l0 11.533 l-2.9004 0 l0 -11.533 l-3.3691 0 l0 -2.5781 l9.6191 0 z M28.720659375 20 l-3.6719 -6.2109 l-0.84961 0 l0 6.2109 l-2.9297 0 l0 -14.111 l5.1172 0 c3.1934 0 4.541 1.8848 4.541 4.2188 c0 1.8945 -1.0742 3.125 -2.9883 3.5352 l4.248 6.3574 l-3.4668 0 z M24.199259375 8.32 l0 3.3691 l1.7285 0 c1.5625 0 2.1973 -0.66406 2.1973 -1.6797 c0 -1.0059 -0.63477 -1.6895 -2.1973 -1.6895 l-1.7285 0 z M45.703593749999996 20 l-1.0254 -2.9102 l-5.9277 0 l-1.0254 2.9102 l-2.998 0 l5.1953 -14.111 l3.584 0 l5.1953 14.111 l-2.998 0 z M39.60939375 14.6387 l4.209 0 l-2.0996 -5.9863 z M58.99416875 20.19531 c-4.1504 0 -7.2168 -2.8223 -7.2168 -7.2559 s3.0664 -7.2461 7.2168 -7.2461 c3.1445 0 5.6641 1.6113 6.6699 4.2871 l-2.7344 0.99609 c-0.625 -1.6406 -2.1191 -2.5879 -3.9355 -2.5879 c-2.4316 0 -4.2969 1.6992 -4.2969 4.5508 s1.8652 4.5605 4.2969 4.5605 c1.8164 0 3.3105 -0.95703 3.9355 -2.5977 l2.7344 0.99609 c-1.0059 2.6758 -3.5254 4.2969 -6.6699 4.2969 z M78.3400625 20 l-4.3848 -5.9961 l-1.0352 0 l0 5.9961 l-2.9297 0 l0 -14.111 l2.9297 0 l0 5.5469 l0.99609 0 l4.4238 -5.5469 l3.5742 0 l-5.4688 6.748 l5.6348 7.3633 l-3.7402 0 z M94.28734375 8.467 l-5.2344 0 l0 3.2031 l4.6387 0 l0 2.5488 l-4.6387 0 l0 3.1934 l5.2344 0 l0 2.5879 l-8.1836 0 l0 -14.111 l8.1836 0 l0 2.5781 z M106.67964375 20 l-3.6719 -6.2109 l-0.84961 0 l0 6.2109 l-2.9297 0 l0 -14.111 l5.1172 0 c3.1934 0 4.541 1.8848 4.541 4.2188 c0 1.8945 -1.0742 3.125 -2.9883 3.5352 l4.248 6.3574 l-3.4668 0 z M102.15824375 8.32 l0 3.3691 l1.7285 0 c1.5625 0 2.1973 -0.66406 2.1973 -1.6797 c0 -1.0059 -0.63477 -1.6895 -2.1973 -1.6895 l-1.7285 0 z"></path></g></svg>